<svg t="1636384732107" class="icon" viewBox="0 0 1024 1024" version="1.1" xmlns="http://www.w3.org/2000/svg" p-id="7962" width="200" height="200"><path d="M-664.554667 249.408" p-id="7963"></path><path d="M-664.554667 249.408" p-id="7964"></path><path d="M829.781333 960l-211.861333 0c-12.074667 0-21.866667-9.770667-21.866667-21.866667L596.053333 642.218667l-168.128 0 0 295.936c0 12.074667-9.770667 21.866667-21.866667 21.866667L194.218667 960.021333c-55.168 0-74.816-38.656-74.816-74.816L119.402667 589.248 52.693333 589.248c-21.482667 0-35.285333-6.933333-41.088-20.629333-8.64-20.394667 7.317333-40.661333 22.208-56.064L459.050667 86.912C472.448 73.024 491.029333 64.789333 511.146667 64c21.866667 0.789333 40.469333 9.024 54.122667 23.210667L989.866667 512.277333c15.146667 15.68 31.168 35.968 22.549333 56.362667-5.802667 13.674667-19.648 20.629333-41.109333 20.629333l-66.688 0 0 295.936C904.618667 921.344 884.949333 960 829.781333 960z" p-id="7965"></path></svg><svg t="1636384732107" class="icon" viewBox="0 0 1024 1024" version="1.1" xmlns="http://www.w3.org/2000/svg" p-id="7962" width="200" height="200"><path d="M-664.554667 249.408" p-id="7963"></path><path d="M-664.554667 249.408" p-id="7964"></path><path d="M829.781333 960l-211.861333 0c-12.074667 0-21.866667-9.770667-21.866667-21.866667L596.053333 642.218667l-168.128 0 0 295.936c0 12.074667-9.770667 21.866667-21.866667 21.866667L194.218667 960.021333c-55.168 0-74.816-38.656-74.816-74.816L119.402667 589.248 52.693333 589.248c-21.482667 0-35.285333-6.933333-41.088-20.629333-8.64-20.394667 7.317333-40.661333 22.208-56.064L459.050667 86.912C472.448 73.024 491.029333 64.789333 511.146667 64c21.866667 0.789333 40.469333 9.024 54.122667 23.210667L989.866667 512.277333c15.146667 15.68 31.168 35.968 22.549333 56.362667-5.802667 13.674667-19.648 20.629333-41.109333 20.629333l-66.688 0 0 295.936C904.618667 921.344 884.949333 960 829.781333 960z" p-id="7965"></path></svg>
