<svg t="1636385669919" class="icon" viewBox="0 0 1024 1024" version="1.1" xmlns="http://www.w3.org/2000/svg" p-id="3990" width="200" height="200"><path d="M518.062 66c143.317 67.291 258.119 104.66 344.405 112.11C880.305 179.648 894 194.577 894 212.48v333.564C863.667 746.94 738 884.258 517 958c-223.854-74.019-349.521-211.337-377-411.955V213.16c0-18.16 14.077-33.21 32.195-34.423 89.313-5.98 204.602-43.558 345.867-112.736z m1.237 179.32c-81.32 0-147.122 66.459-147.122 148.294 0 71.17 49.767 130.71 116.226 145.021l1.012 210.302 0.012 0.706c0.452 16.178 13.747 29.115 30.015 29.037 16.505-0.08 29.82-13.524 29.74-30.03L549 710.891l53.132-0.137 0.705-0.01c16.178-0.416 29.144-13.683 29.102-29.953-0.043-16.506-13.457-29.852-29.961-29.81l-53.265 0.137-0.133-27.694 53.552-0.137 0.705-0.01c16.178-0.417 29.144-13.684 29.102-29.954-0.043-16.506-13.457-29.852-29.961-29.81l-53.685 0.138-0.117-24.596c67.468-13.53 118.245-73.553 118.245-145.44 0-81.836-65.803-148.295-147.122-148.295z m0 59.773c48.178 0 87.353 39.567 87.353 88.521 0 45.804-34.294 83.39-78.17 88.038a29.742 29.742 0 0 0-10.476-1.838c-3.37 0.017-6.608 0.59-9.625 1.633-43.042-5.439-76.436-42.634-76.436-87.833 0-48.954 39.176-88.521 87.354-88.521z" fill="#333333" p-id="3991"></path></svg>
  